<?xml version="1.0" encoding="UTF-8" standalone="no"?><svg xmlns="http://www.w3.org/2000/svg" xmlns:xlink="http://www.w3.org/1999/xlink" style="isolation:isolate" viewBox="0 0 512 512" width="512pt" height="512pt"><defs><clipPath id="_clipPath_YurtYF9BaSY1i612vWjkpeDvtqscEAIj"><rect width="512" height="512"/></clipPath></defs><g clip-path="url(#_clipPath_YurtYF9BaSY1i612vWjkpeDvtqscEAIj)"><clipPath id="_clipPath_bEXNR7qb4mNx3MMloAYMhHD2I7T3c4EN"><rect x="0" y="0" width="512" height="512" transform="matrix(1,0,0,1,0,0)" fill="rgb(255,255,255)"/></clipPath><g clip-path="url(#_clipPath_bEXNR7qb4mNx3MMloAYMhHD2I7T3c4EN)"><g><g><path d=" M 351.926 107.795 L 351.926 140.287 L 319.433 140.287 L 286.941 140.287 L 286.941 107.795 L 286.941 75.303 L 319.433 75.303 L 351.926 75.303 L 351.926 107.795 Z  M 286.941 107.795 L 286.941 140.287 L 254.449 140.287 L 221.956 140.287 L 221.956 107.795 L 221.956 75.303 L 254.449 75.303 L 286.941 75.303 L 286.941 107.795 Z  M 221.956 107.795 L 221.956 140.287 L 189.464 140.287 L 156.972 140.287 L 156.972 107.795 L 156.972 75.303 L 189.464 75.303 L 221.956 75.303 L 221.956 107.795 Z  M 286.941 172.779 L 286.941 205.272 L 254.449 205.272 L 221.956 205.272 L 221.956 172.779 L 221.956 140.287 L 254.449 140.287 L 286.941 140.287 L 286.941 172.779 Z " fill-rule="evenodd" fill="rgb(58,57,51)"/><path d=" M 286.941 299.795 L 286.941 331.303 L 254.449 331.303 L 221.956 331.303 L 221.956 299.795 L 221.956 268.287 L 254.449 268.287 L 286.941 268.287 L 286.941 299.795 Z " fill="rgb(135,136,132)"/><path d=" M 221.956 236.779 L 221.956 268.287 L 189.464 268.287 L 156.972 268.287 L 156.972 236.779 L 156.972 205.272 L 189.464 205.272 L 221.956 205.272 L 221.956 236.779 Z " fill="rgb(205,204,202)"/><path d=" M 351.926 236.779 L 351.926 268.287 L 319.433 268.287 L 286.941 268.287 L 286.941 236.779 L 286.941 205.272 L 319.433 205.272 L 351.926 205.272 L 351.926 236.779 Z " fill="rgb(250,181,17)"/></g><path d=" M 232.946 404.225 L 232.946 404.225 L 232.946 404.225 Q 232.946 406.769 232.109 409.079 L 232.109 409.079 L 232.109 409.079 Q 231.272 411.389 229.799 413.264 L 229.799 413.264 L 229.799 413.264 Q 231.272 415.138 232.109 417.448 L 232.109 417.448 L 232.109 417.448 Q 232.946 419.758 232.946 422.302 L 232.946 422.302 L 232.946 436.697 L 222.167 436.697 L 222.167 422.302 L 222.167 422.302 Q 222.167 420.762 221.129 419.725 L 221.129 419.725 L 221.129 419.725 Q 220.091 418.687 218.551 418.687 L 218.551 418.687 L 207.705 418.687 L 207.705 436.697 L 196.925 436.697 L 196.925 389.83 L 207.705 389.83 L 218.551 389.83 L 218.551 389.83 Q 221.564 389.83 224.175 390.968 L 224.175 390.968 L 224.175 390.968 Q 226.786 392.106 228.728 394.048 L 228.728 394.048 L 228.728 394.048 Q 230.67 395.989 231.808 398.601 L 231.808 398.601 L 231.808 398.601 Q 232.946 401.212 232.946 404.225 Z  M 207.705 407.84 L 218.551 407.84 L 218.551 407.84 Q 220.091 407.84 221.129 406.803 L 221.129 406.803 L 221.129 406.803 Q 222.167 405.765 222.167 404.225 L 222.167 404.225 L 222.167 404.225 Q 222.167 402.752 221.129 401.714 L 221.129 401.714 L 221.129 401.714 Q 220.091 400.676 218.551 400.676 L 218.551 400.676 L 207.705 400.676 L 207.705 407.84 Z  M 272.236 389.83 L 272.236 422.302 L 272.236 422.302 Q 272.236 425.315 271.098 427.926 L 271.098 427.926 L 271.098 427.926 Q 269.96 430.538 268.018 432.479 L 268.018 432.479 L 268.018 432.479 Q 266.077 434.421 263.465 435.559 L 263.465 435.559 L 263.465 435.559 Q 260.854 436.697 257.841 436.697 L 257.841 436.697 L 250.61 436.697 L 250.61 436.697 Q 247.597 436.697 244.986 435.559 L 244.986 435.559 L 244.986 435.559 Q 242.375 434.421 240.433 432.479 L 240.433 432.479 L 240.433 432.479 Q 238.492 430.538 237.353 427.926 L 237.353 427.926 L 237.353 427.926 Q 236.215 425.315 236.215 422.302 L 236.215 422.302 L 236.215 389.83 L 246.995 389.83 L 246.995 422.302 L 246.995 422.302 Q 246.995 423.775 248.032 424.847 L 248.032 424.847 L 248.032 424.847 Q 249.07 425.918 250.61 425.918 L 250.61 425.918 L 257.841 425.918 L 257.841 425.918 Q 259.381 425.918 260.419 424.847 L 260.419 424.847 L 260.419 424.847 Q 261.457 423.775 261.457 422.302 L 261.457 422.302 L 261.457 389.83 L 272.236 389.83 Z  M 311.526 404.225 L 311.526 404.225 L 311.526 404.225 Q 311.526 406.769 310.689 409.079 L 310.689 409.079 L 310.689 409.079 Q 309.853 411.389 308.38 413.264 L 308.38 413.264 L 308.38 413.264 Q 309.853 415.138 310.689 417.448 L 310.689 417.448 L 310.689 417.448 Q 311.526 419.758 311.526 422.302 L 311.526 422.302 L 311.526 422.302 Q 311.526 425.315 310.388 427.926 L 310.388 427.926 L 310.388 427.926 Q 309.25 430.538 307.308 432.479 L 307.308 432.479 L 307.308 432.479 Q 305.367 434.421 302.755 435.559 L 302.755 435.559 L 302.755 435.559 Q 300.144 436.697 297.131 436.697 L 297.131 436.697 L 286.285 436.697 L 275.505 436.697 L 275.505 389.83 L 286.285 389.83 L 297.131 389.83 L 297.131 389.83 Q 300.144 389.83 302.755 390.968 L 302.755 390.968 L 302.755 390.968 Q 305.367 392.106 307.308 394.048 L 307.308 394.048 L 307.308 394.048 Q 309.25 395.989 310.388 398.601 L 310.388 398.601 L 310.388 398.601 Q 311.526 401.212 311.526 404.225 Z  M 297.131 400.676 L 286.285 400.676 L 286.285 407.84 L 297.131 407.84 L 297.131 407.84 Q 298.671 407.84 299.709 406.803 L 299.709 406.803 L 299.709 406.803 Q 300.747 405.765 300.747 404.225 L 300.747 404.225 L 300.747 404.225 Q 300.747 402.752 299.709 401.714 L 299.709 401.714 L 299.709 401.714 Q 298.671 400.676 297.131 400.676 L 297.131 400.676 Z  M 286.285 425.918 L 297.131 425.918 L 297.131 425.918 Q 298.671 425.918 299.709 424.847 L 299.709 424.847 L 299.709 424.847 Q 300.747 423.775 300.747 422.302 L 300.747 422.302 L 300.747 422.302 Q 300.747 420.762 299.709 419.725 L 299.709 419.725 L 299.709 419.725 Q 298.671 418.687 297.131 418.687 L 297.131 418.687 L 286.285 418.687 L 286.285 425.918 Z  M 314.795 389.83 L 314.795 389.83 L 325.575 389.83 L 325.575 436.697 L 314.795 436.697 L 314.795 389.83 Z  M 350.47 425.918 L 350.47 425.918 L 350.47 425.918 Q 352.01 425.918 353.048 424.847 L 353.048 424.847 L 353.048 424.847 Q 354.085 423.775 354.085 422.302 L 354.085 422.302 L 364.865 422.302 L 364.865 422.302 Q 364.865 425.315 363.727 427.926 L 363.727 427.926 L 363.727 427.926 Q 362.589 430.538 360.647 432.479 L 360.647 432.479 L 360.647 432.479 Q 358.705 434.421 356.094 435.559 L 356.094 435.559 L 356.094 435.559 Q 353.483 436.697 350.47 436.697 L 350.47 436.697 L 343.239 436.697 L 343.239 436.697 Q 340.226 436.697 337.615 435.559 L 337.615 435.559 L 337.615 435.559 Q 335.004 434.421 333.062 432.479 L 333.062 432.479 L 333.062 432.479 Q 331.12 430.538 329.982 427.926 L 329.982 427.926 L 329.982 427.926 Q 328.844 425.315 328.844 422.302 L 328.844 422.302 L 328.844 404.225 L 328.844 404.225 Q 328.844 401.212 329.982 398.601 L 329.982 398.601 L 329.982 398.601 Q 331.12 395.989 333.062 394.048 L 333.062 394.048 L 333.062 394.048 Q 335.004 392.106 337.615 390.968 L 337.615 390.968 L 337.615 390.968 Q 340.226 389.83 343.239 389.83 L 343.239 389.83 L 350.47 389.83 L 350.47 389.83 Q 353.483 389.83 356.094 390.968 L 356.094 390.968 L 356.094 390.968 Q 358.705 392.106 360.647 394.048 L 360.647 394.048 L 360.647 394.048 Q 362.589 395.989 363.727 398.601 L 363.727 398.601 L 363.727 398.601 Q 364.865 401.212 364.865 404.225 L 364.865 404.225 L 354.085 404.225 L 354.085 404.225 Q 354.085 402.752 353.048 401.714 L 353.048 401.714 L 353.048 401.714 Q 352.01 400.676 350.47 400.676 L 350.47 400.676 L 343.239 400.676 L 343.239 400.676 Q 341.699 400.676 340.661 401.714 L 340.661 401.714 L 340.661 401.714 Q 339.623 402.752 339.623 404.225 L 339.623 404.225 L 339.623 422.302 L 339.623 422.302 Q 339.623 423.775 340.661 424.847 L 340.661 424.847 L 340.661 424.847 Q 341.699 425.918 343.239 425.918 L 343.239 425.918 L 350.47 425.918 Z  M 382.529 389.83 L 389.76 389.83 L 389.76 389.83 Q 392.773 389.83 395.384 390.968 L 395.384 390.968 L 395.384 390.968 Q 397.995 392.106 399.937 394.048 L 399.937 394.048 L 399.937 394.048 Q 401.879 395.989 403.017 398.601 L 403.017 398.601 L 403.017 398.601 Q 404.155 401.212 404.155 404.225 L 404.155 404.225 L 404.155 422.302 L 404.155 422.302 Q 404.155 425.315 403.017 427.926 L 403.017 427.926 L 403.017 427.926 Q 401.879 430.538 399.937 432.479 L 399.937 432.479 L 399.937 432.479 Q 397.995 434.421 395.384 435.559 L 395.384 435.559 L 395.384 435.559 Q 392.773 436.697 389.76 436.697 L 389.76 436.697 L 382.529 436.697 L 382.529 436.697 Q 379.516 436.697 376.905 435.559 L 376.905 435.559 L 376.905 435.559 Q 374.294 434.421 372.352 432.479 L 372.352 432.479 L 372.352 432.479 Q 370.41 430.538 369.272 427.926 L 369.272 427.926 L 369.272 427.926 Q 368.134 425.315 368.134 422.302 L 368.134 422.302 L 368.134 404.225 L 368.134 404.225 Q 368.134 401.212 369.272 398.601 L 369.272 398.601 L 369.272 398.601 Q 370.41 395.989 372.352 394.048 L 372.352 394.048 L 372.352 394.048 Q 374.294 392.106 376.905 390.968 L 376.905 390.968 L 376.905 390.968 Q 379.516 389.83 382.529 389.83 L 382.529 389.83 Z  M 393.376 422.302 L 393.376 404.225 L 393.376 404.225 Q 393.376 402.752 392.338 401.714 L 392.338 401.714 L 392.338 401.714 Q 391.3 400.676 389.76 400.676 L 389.76 400.676 L 382.529 400.676 L 382.529 400.676 Q 380.989 400.676 379.951 401.714 L 379.951 401.714 L 379.951 401.714 Q 378.913 402.752 378.913 404.225 L 378.913 404.225 L 378.913 422.302 L 378.913 422.302 Q 378.913 423.775 379.951 424.847 L 379.951 424.847 L 379.951 424.847 Q 380.989 425.918 382.529 425.918 L 382.529 425.918 L 389.76 425.918 L 389.76 425.918 Q 391.3 425.918 392.338 424.847 L 392.338 424.847 L 392.338 424.847 Q 393.376 423.775 393.376 422.302 L 393.376 422.302 Z  M 407.424 436.697 L 407.424 404.225 L 407.424 404.225 Q 407.424 401.212 408.562 398.601 L 408.562 398.601 L 408.562 398.601 Q 409.7 395.989 411.642 394.048 L 411.642 394.048 L 411.642 394.048 Q 413.584 392.106 416.195 390.968 L 416.195 390.968 L 416.195 390.968 Q 418.806 389.83 421.819 389.83 L 421.819 389.83 L 429.05 389.83 L 429.05 389.83 Q 432.063 389.83 434.674 390.968 L 434.674 390.968 L 434.674 390.968 Q 437.285 392.106 439.227 394.048 L 439.227 394.048 L 439.227 394.048 Q 441.169 395.989 442.307 398.601 L 442.307 398.601 L 442.307 398.601 Q 443.445 401.212 443.445 404.225 L 443.445 404.225 L 443.445 436.697 L 432.666 436.697 L 432.666 404.225 L 432.666 404.225 Q 432.666 402.752 431.628 401.681 L 431.628 401.681 L 431.628 401.681 Q 430.59 400.609 429.05 400.609 L 429.05 400.609 L 421.819 400.609 L 421.819 400.609 Q 420.279 400.609 419.241 401.681 L 419.241 401.681 L 419.241 401.681 Q 418.204 402.752 418.204 404.225 L 418.204 404.225 L 418.204 436.697 L 407.424 436.697 Z  M 461.109 400.676 L 461.109 400.676 L 461.109 400.676 Q 459.569 400.676 458.531 401.714 L 458.531 401.714 L 458.531 401.714 Q 457.494 402.752 457.494 404.225 L 457.494 404.225 L 457.494 407.84 L 482.735 407.84 L 482.735 418.687 L 457.494 418.687 L 457.494 422.302 L 457.494 422.302 Q 457.494 423.775 458.531 424.847 L 458.531 424.847 L 458.531 424.847 Q 459.569 425.918 461.109 425.918 L 461.109 425.918 L 482.735 425.918 L 482.735 436.697 L 461.109 436.697 L 461.109 436.697 Q 458.096 436.697 455.485 435.559 L 455.485 435.559 L 455.485 435.559 Q 452.874 434.421 450.932 432.479 L 450.932 432.479 L 450.932 432.479 Q 448.991 430.538 447.852 427.926 L 447.852 427.926 L 447.852 427.926 Q 446.714 425.315 446.714 422.302 L 446.714 422.302 L 446.714 404.225 L 446.714 404.225 Q 446.714 401.212 447.852 398.601 L 447.852 398.601 L 447.852 398.601 Q 448.991 395.989 450.932 394.048 L 450.932 394.048 L 450.932 394.048 Q 452.874 392.106 455.485 390.968 L 455.485 390.968 L 455.485 390.968 Q 458.096 389.83 461.109 389.83 L 461.109 389.83 L 482.735 389.83 L 482.735 400.676 L 461.109 400.676 Z  M 61.737 389.83 L 61.737 389.83 L 61.737 400.676 L 50.891 400.676 L 50.891 436.697 L 40.111 436.697 L 40.111 400.676 L 29.265 400.676 L 29.265 389.83 L 61.737 389.83 Z  M 79.401 400.676 L 79.401 400.676 L 79.401 400.676 Q 77.861 400.676 76.824 401.714 L 76.824 401.714 L 76.824 401.714 Q 75.786 402.752 75.786 404.225 L 75.786 404.225 L 75.786 407.84 L 101.027 407.84 L 101.027 418.687 L 75.786 418.687 L 75.786 422.302 L 75.786 422.302 Q 75.786 423.775 76.824 424.847 L 76.824 424.847 L 76.824 424.847 Q 77.861 425.918 79.401 425.918 L 79.401 425.918 L 101.027 425.918 L 101.027 436.697 L 79.401 436.697 L 79.401 436.697 Q 76.388 436.697 73.777 435.559 L 73.777 435.559 L 73.777 435.559 Q 71.166 434.421 69.224 432.479 L 69.224 432.479 L 69.224 432.479 Q 67.283 430.538 66.144 427.926 L 66.144 427.926 L 66.144 427.926 Q 65.006 425.315 65.006 422.302 L 65.006 422.302 L 65.006 404.225 L 65.006 404.225 Q 65.006 401.212 66.144 398.601 L 66.144 398.601 L 66.144 398.601 Q 67.283 395.989 69.224 394.048 L 69.224 394.048 L 69.224 394.048 Q 71.166 392.106 73.777 390.968 L 73.777 390.968 L 73.777 390.968 Q 76.388 389.83 79.401 389.83 L 79.401 389.83 L 101.027 389.83 L 101.027 400.676 L 79.401 400.676 Z  M 125.922 425.918 L 125.922 425.918 L 125.922 425.918 Q 127.462 425.918 128.5 424.847 L 128.5 424.847 L 128.5 424.847 Q 129.538 423.775 129.538 422.302 L 129.538 422.302 L 140.318 422.302 L 140.318 422.302 Q 140.318 425.315 139.179 427.926 L 139.179 427.926 L 139.179 427.926 Q 138.041 430.538 136.099 432.479 L 136.099 432.479 L 136.099 432.479 Q 134.158 434.421 131.547 435.559 L 131.547 435.559 L 131.547 435.559 Q 128.935 436.697 125.922 436.697 L 125.922 436.697 L 118.691 436.697 L 118.691 436.697 Q 115.679 436.697 113.067 435.559 L 113.067 435.559 L 113.067 435.559 Q 110.456 434.421 108.514 432.479 L 108.514 432.479 L 108.514 432.479 Q 106.573 430.538 105.435 427.926 L 105.435 427.926 L 105.435 427.926 Q 104.296 425.315 104.296 422.302 L 104.296 422.302 L 104.296 404.225 L 104.296 404.225 Q 104.296 401.212 105.435 398.601 L 105.435 398.601 L 105.435 398.601 Q 106.573 395.989 108.514 394.048 L 108.514 394.048 L 108.514 394.048 Q 110.456 392.106 113.067 390.968 L 113.067 390.968 L 113.067 390.968 Q 115.679 389.83 118.691 389.83 L 118.691 389.83 L 125.922 389.83 L 125.922 389.83 Q 128.935 389.83 131.547 390.968 L 131.547 390.968 L 131.547 390.968 Q 134.158 392.106 136.099 394.048 L 136.099 394.048 L 136.099 394.048 Q 138.041 395.989 139.179 398.601 L 139.179 398.601 L 139.179 398.601 Q 140.318 401.212 140.318 404.225 L 140.318 404.225 L 129.538 404.225 L 129.538 404.225 Q 129.538 402.752 128.5 401.714 L 128.5 401.714 L 128.5 401.714 Q 127.462 400.676 125.922 400.676 L 125.922 400.676 L 118.691 400.676 L 118.691 400.676 Q 117.152 400.676 116.114 401.714 L 116.114 401.714 L 116.114 401.714 Q 115.076 402.752 115.076 404.225 L 115.076 404.225 L 115.076 422.302 L 115.076 422.302 Q 115.076 423.775 116.114 424.847 L 116.114 424.847 L 116.114 424.847 Q 117.152 425.918 118.691 425.918 L 118.691 425.918 L 125.922 425.918 Z  M 168.828 389.83 L 168.828 389.83 L 179.608 389.83 L 179.608 436.697 L 168.828 436.697 L 168.828 418.687 L 154.366 418.687 L 154.366 436.697 L 143.586 436.697 L 143.586 389.83 L 154.366 389.83 L 154.366 407.84 L 168.828 407.84 L 168.828 389.83 Z " fill="rgb(0,0,0)"/></g></g></g></svg>
