<?xml version="1.0" encoding="UTF-8" standalone="no"?>
<svg xmlns="http://www.w3.org/2000/svg" style="isolation:isolate" viewBox="0 0 512 512" width="512pt" height="512pt">
  <g>
    <path d="M 64 0 L 448 0 C 483.323 0 512 28.677 512 64 L 512 448 C 512 483.323 483.323 512 448 512 L 64 512 C 28.677 512 0 483.323 0 448 L 0 64 C 0 28.677 28.677 0 64 0 Z"
          style="stroke:none;fill:#FFFFFF;stroke-miterlimit:10;"/>
    <clipPath id="_clipPath_qV7GFRhd5sxTLgzW8k26B7N4CLwYujKH">
      <path d="M 64 0 L 448 0 C 483.323 0 512 28.677 512 64 L 512 448 C 512 483.323 483.323 512 448 512 L 64 512 C 28.677 512 0 483.323 0 448 L 0 64 C 0 28.677 28.677 0 64 0 Z"
            style="stroke:none;fill:#FFFFFF;stroke-miterlimit:10;"/>
    </clipPath>
    <g clip-path="url(#_clipPath_qV7GFRhd5sxTLgzW8k26B7N4CLwYujKH)">
      <g>
        <path
          d=" M 395 120.182 L 395 166.387 L 348.666 166.387 L 302.333 166.387 L 302.333 120.182 L 302.333 73.976 L 348.666 73.976 L 395 73.976 L 395 120.182 L 395 120.182 Z  M 302.333 120.182 L 302.333 166.387 L 256 166.387 L 209.666 166.387 L 209.666 120.182 L 209.666 73.976 L 256 73.976 L 302.333 73.976 L 302.333 120.182 L 302.333 120.182 Z  M 209.666 120.182 L 209.666 166.387 L 163.333 166.387 L 117 166.387 L 117 120.182 L 117 73.976 L 163.333 73.976 L 209.666 73.976 L 209.666 120.182 L 209.666 120.182 Z  M 302.333 212.593 L 302.333 258.8 L 256 258.8 L 209.666 258.8 L 209.666 212.593 L 209.666 166.387 L 256 166.387 L 302.333 166.387 L 302.333 212.593 L 302.333 212.593 Z "
          fill-rule="evenodd" fill="rgb(58,57,51)"/>
        <path
          d=" M 302.333 393.218 L 302.333 438.024 L 256 438.024 L 209.666 438.024 L 209.666 393.218 L 209.666 348.411 L 256 348.411 L 302.333 348.411 L 302.333 393.218 L 302.333 393.218 Z "
          fill="rgb(135,136,132)"/>
        <path
          d=" M 209.666 303.605 L 209.666 348.411 L 163.333 348.411 L 117 348.411 L 117 303.605 L 117 258.8 L 163.333 258.8 L 209.666 258.8 L 209.666 303.605 L 209.666 303.605 Z "
          fill="rgb(205,204,202)"/>
        <path d=" M 395 303.605 L 395 348.411 L 348.666 348.411 L 302.333 348.411 L 302.333 303.605 L 302.333 258.8 L 348.666 258.8 L 395 258.8 L 395 303.605 L 395 303.605 Z "
              fill="rgb(250,181,17)"/>
      </g>
    </g>
  </g>
</svg>
