<svg id="Capa_1" enable-background="new 0 0 512 512" height="512" viewBox="0 0 512 512" width="512" xmlns="http://www.w3.org/2000/svg"><g><g fill="#e19974"><path d="m107.211 511.061c-12.011-3.555-18.867-16.174-15.312-28.186l20.398-68.919 43.497 12.874-20.398 68.919c-3.555 12.012-16.174 18.868-28.185 15.312z"/><path d="m358.645 511.061c12.011-3.555 18.867-16.174 15.312-28.186l-20.398-68.919-43.497 12.874 20.398 68.919c3.555 12.012 16.174 18.868 28.185 15.312z"/></g><g fill="#dc8758"><path d="m155.792 426.832-20.397 68.92c-3.552 12.01-16.178 18.867-28.188 15.305-1.612-.472-3.121-1.109-4.537-1.899 5.03-2.782 9.003-7.463 10.758-13.406l23.117-74.617z"/><path d="m358.641 511.057c-6.067 1.796-12.287.944-17.42-1.899 9.126-5.02 13.858-15.88 10.768-26.279l-18.631-62.946 20.202-5.974 20.397 68.92c3.551 12.01-3.296 24.626-15.316 28.178z"/></g><circle cx="232.928" cy="263.537" fill="#fe646f" r="217.393"/><path d="m450.318 263.535c0 120.06-97.323 217.394-217.394 217.394-50.186 0-96.389-16.999-133.19-45.567 32.458 19.288 70.378 30.364 110.873 30.364 120.06 0 217.394-97.334 217.394-217.394 0-69.905-32.992-132.101-84.266-171.869 63.819 37.889 106.583 107.486 106.583 187.072z" fill="#fd4755"/><circle cx="232.928" cy="263.537" fill="#f9f8f9" r="172.7"/><path d="m405.624 263.535c0 95.383-77.317 172.7-172.7 172.7-24.913 0-48.585-5.276-69.977-14.761 15.716 4.701 32.366 7.227 49.611 7.227 95.373 0 172.7-77.317 172.7-172.7 0-70.47-42.21-131.085-102.723-157.939 71.199 21.32 123.089 87.345 123.089 165.473z" fill="#efedef"/><circle cx="232.928" cy="263.537" fill="#fe646f" r="129.39"/><path d="m362.316 263.535c0 71.466-57.926 129.391-129.392 129.391-24.061 0-46.593-6.57-65.892-18.015 13.755 4.979 28.598 7.699 44.068 7.699 71.465 0 129.392-57.926 129.392-129.392 0-47.384-25.478-88.824-63.479-111.366 49.755 18.026 85.303 65.707 85.303 121.683z" fill="#fd4755"/><circle cx="232.928" cy="263.537" fill="#f9f8f9" r="83.332"/><path d="m316.256 263.535c0 46.029-37.303 83.332-83.332 83.332-17.307 0-33.382-5.276-46.706-14.299 8.089 2.618 16.722 4.034 25.694 4.034 46.018 0 83.332-37.303 83.332-83.332 0-28.722-14.535-54.056-36.646-69.023 33.463 10.809 57.658 42.231 57.658 79.288z" fill="#efedef"/><circle cx="232.928" cy="263.537" fill="#fe646f" r="37.592"/><path d="m270.515 263.535c0 20.766-16.825 37.591-37.591 37.591-8.571 0-16.476-2.874-22.799-7.699 1.16.113 2.33.164 3.521.164 20.756 0 37.591-16.824 37.591-37.591 0-12.185-5.8-23.025-14.792-29.892 19.114 1.776 34.07 17.861 34.07 37.427z" fill="#fd4755"/><g><path d="m232.928 271.236c-1.97 0-3.941-.752-5.444-2.255-3.006-3.006-3.006-7.881 0-10.888l205.036-205.036c3.007-3.006 7.881-3.006 10.889 0 3.006 3.006 3.006 7.881 0 10.888l-205.037 205.036c-1.504 1.503-3.475 2.255-5.444 2.255z" fill="#8b8089"/></g><path d="m445.417 51.048-6.002-47.454c-.428-3.386-4.562-4.801-6.975-2.387l-72.671 72.671c-.959.959-1.382 2.33-1.131 3.662l9.554 50.733z" fill="#fee97d"/><path d="m445.422 51.047-77.235 77.224-4.557-24.236 78.558-78.558z" fill="#fedf30"/><path d="m445.417 51.048 47.453 6.002c3.386.428 4.801 4.562 2.387 6.975l-72.671 72.671c-.959.959-2.33 1.382-3.662 1.131l-50.733-9.554z" fill="#fedf30"/><path d="m495.259 64.022-72.667 72.677c-.965.955-2.33 1.375-3.665 1.129l-22.604-4.26 76.321-76.321c.76-.76 1.139-1.683 1.201-2.607l19.021 2.412c3.389.431 4.805 4.558 2.393 6.97z" fill="#fed402"/></g></svg>