<svg id="Capa_1" enable-background="new 0 0 512 512" height="512" viewBox="0 0 512 512" width="512" xmlns="http://www.w3.org/2000/svg"><g><g><g><path d="m268.786 91.832h-155.952c-4.204 0-7.611-3.407-7.611-7.611s3.408-7.611 7.611-7.611h155.952c4.204 0 7.612 3.407 7.612 7.611s-3.407 7.611-7.612 7.611z" fill="#78c2a4"/></g><g><path d="m119.723 147.623h-80.274c-4.204 0-7.611-3.407-7.611-7.611s3.408-7.611 7.611-7.611h80.274c4.204 0 7.611 3.407 7.611 7.611s-3.407 7.611-7.611 7.611z" fill="#78c2a4"/></g><g><path d="m116.971 199.489h-31.71c-4.204 0-7.611-3.407-7.611-7.611s3.408-7.611 7.611-7.611h31.711c4.204 0 7.611 3.407 7.611 7.611s-3.408 7.611-7.612 7.611z" fill="#78c2a4"/></g><g><path d="m85.261 237.05h-77.65c-4.204 0-7.611-3.407-7.611-7.611s3.408-7.611 7.611-7.611h77.649c4.204 0 7.611 3.407 7.611 7.611s-3.407 7.611-7.61 7.611z" fill="#78c2a4"/></g><g><path d="m278.935 435.391h-166.101c-4.204 0-7.611-3.407-7.611-7.612s3.408-7.611 7.611-7.611h166.101c4.204 0 7.611 3.407 7.611 7.611s-3.407 7.612-7.611 7.612z" fill="#78c2a4"/></g><g><path d="m119.723 379.6h-80.274c-4.204 0-7.611-3.407-7.611-7.611s3.408-7.612 7.611-7.612h80.274c4.204 0 7.611 3.407 7.611 7.612s-3.407 7.611-7.611 7.611z" fill="#78c2a4"/></g><g><path d="m116.971 327.734h-31.71c-4.204 0-7.611-3.407-7.611-7.612s3.408-7.611 7.611-7.611h31.711c4.204 0 7.611 3.407 7.611 7.611s-3.408 7.612-7.612 7.612z" fill="#78c2a4"/></g><g><path d="m85.261 290.174h-77.65c-4.204 0-7.611-3.407-7.611-7.611s3.408-7.612 7.611-7.612h77.649c4.204 0 7.611 3.407 7.611 7.612s-3.407 7.611-7.61 7.611z" fill="#78c2a4"/></g></g><circle cx="324.278" cy="256" fill="#95d6a4" r="187.721"/><path d="m324.278 68.279c-4.752 0-9.461.18-14.124.527 97.078 7.222 173.597 88.27 173.597 187.194s-76.519 179.972-173.597 187.194c4.663.347 9.372.527 14.124.527 103.676 0 187.722-84.045 187.722-187.721s-84.046-187.721-187.722-187.721z" fill="#78c2a4"/><circle cx="324.278" cy="256" fill="#f4fbff" r="144.144"/><path d="m324.278 111.855c-4.386 0-8.722.207-13.008.591 73.512 6.577 131.136 68.331 131.136 143.554s-57.624 136.976-131.136 143.553c4.286.383 8.622.59 13.008.59 79.609 0 144.144-64.535 144.144-144.144.001-79.608-64.535-144.144-144.144-144.144z" fill="#daf1f4"/><g><g><path d="m324.279 164.49c-4.204 0-7.612-3.407-7.612-7.611v-11.619c0-4.204 3.407-7.611 7.612-7.611s7.611 3.407 7.611 7.611v11.618c0 4.204-3.407 7.612-7.611 7.612z" fill="#365e7d"/></g><g><path d="m394.368 193.521c-1.947 0-3.896-.743-5.383-2.229-2.972-2.973-2.972-7.792 0-10.765l8.215-8.215c2.973-2.971 7.792-2.971 10.765 0 2.972 2.973 2.972 7.792 0 10.765l-8.215 8.215c-1.486 1.486-3.434 2.229-5.382 2.229z" fill="#365e7d"/></g><g><path d="m435.018 263.612h-11.617c-4.204 0-7.612-3.407-7.612-7.612s3.407-7.611 7.612-7.611h11.617c4.204 0 7.612 3.407 7.612 7.611s-3.408 7.612-7.612 7.612z" fill="#365e7d"/></g><g><path d="m402.583 341.916c-1.947 0-3.896-.743-5.383-2.229l-8.215-8.215c-2.972-2.973-2.972-7.792 0-10.765 2.973-2.971 7.792-2.971 10.765 0l8.215 8.215c2.972 2.973 2.972 7.792 0 10.765-1.486 1.486-3.434 2.229-5.382 2.229z" fill="#365e7d"/></g><g><path d="m324.279 374.351c-4.204 0-7.612-3.407-7.612-7.612v-11.617c0-4.204 3.407-7.611 7.612-7.611s7.611 3.407 7.611 7.611v11.617c0 4.205-3.407 7.612-7.611 7.612z" fill="#365e7d"/></g><g><path d="m245.974 341.916c-1.948 0-3.896-.743-5.382-2.229-2.973-2.973-2.973-7.792 0-10.765l8.215-8.215c2.972-2.971 7.792-2.971 10.764 0 2.973 2.973 2.973 7.792 0 10.765l-8.215 8.215c-1.486 1.486-3.434 2.229-5.382 2.229z" fill="#365e7d"/></g><g><path d="m225.157 263.612h-11.618c-4.204 0-7.611-3.407-7.611-7.612s3.408-7.611 7.611-7.611h11.618c4.204 0 7.611 3.407 7.611 7.611s-3.408 7.612-7.611 7.612z" fill="#365e7d"/></g><g><path d="m254.189 193.521c-1.948 0-3.896-.743-5.382-2.229l-8.215-8.215c-2.973-2.973-2.973-7.792 0-10.765 2.972-2.971 7.792-2.971 10.764 0l8.215 8.215c2.973 2.973 2.973 7.792 0 10.765-1.486 1.486-3.434 2.229-5.382 2.229z" fill="#365e7d"/></g></g><g><path d="m357.597 263.612h-33.318c-4.204 0-7.612-3.407-7.612-7.612v-64.123c0-4.204 3.407-7.611 7.612-7.611s7.611 3.407 7.611 7.611v56.511h25.707c4.204 0 7.612 3.407 7.612 7.611s-3.408 7.613-7.612 7.613z" fill="#2b4d66"/></g></g></svg>