<?xml version="1.0" encoding="UTF-8" standalone="no"?><svg xmlns="http://www.w3.org/2000/svg" xmlns:xlink="http://www.w3.org/1999/xlink" style="isolation:isolate" viewBox="0 0 1200 628" width="1200pt" height="628pt"><defs><clipPath id="_clipPath_vtqSVZX7x1EuOoHXNnUIMjfWJhBnpheF"><rect width="1200" height="628"/></clipPath></defs><g clip-path="url(#_clipPath_vtqSVZX7x1EuOoHXNnUIMjfWJhBnpheF)"><g><path d="M 59.66 0 L 1140.34 0 C 1173.267 0 1200 26.733 1200 59.66 L 1200 568.34 C 1200 601.267 1173.267 628 1140.34 628 L 59.66 628 C 26.733 628 0 601.267 0 568.34 L 0 59.66 C 0 26.733 26.733 0 59.66 0 Z" style="stroke:none;fill:#FFFFFF;stroke-miterlimit:10;"/><g opacity="0.85"><linearGradient id="_lgradient_0" x1="0.14644660940672632" y1="0.8535533905932738" x2="0.8535533905932737" y2="0.14644660940672616" gradientTransform="matrix(450,0,0,300,740,8)" gradientUnits="userSpaceOnUse"><stop offset="0%" stop-opacity="1" style="stop-color:rgb(255,255,255)"/><stop offset="96.66666666666667%" stop-opacity="1" style="stop-color:rgb(246,246,246)"/></linearGradient><path d=" M 1115 45.499 L 1115 83 L 1077.5 83 L 1040 83 L 1040 45.499 L 1040 8 L 1077.5 8 L 1115 8 L 1115 45.499 L 1115 45.499 L 1115 45.499 L 1115 45.499 L 1115 45.499 L 1115 45.499 L 1115 45.499 L 1115 45.499 L 1115 45.499 Z  M 1190 120.499 L 1190 158 L 1152.5 158 L 1115 158 L 1115 120.499 L 1115 83 L 1152.5 83 L 1190 83 L 1190 120.499 L 1190 120.499 L 1190 120.499 L 1190 120.499 L 1190 120.499 L 1190 120.499 L 1190 120.499 L 1190 120.499 L 1190 120.499 Z  M 965 45.499 L 965 83 L 927.5 83 L 890 83 L 890 45.499 L 890 8 L 927.5 8 L 965 8 L 965 45.499 L 965 45.499 L 965 45.499 L 965 45.499 L 965 45.499 L 965 45.499 L 965 45.499 L 965 45.499 Z  M 1040 120.499 L 1040 158 L 1002.5 158 L 965 158 L 965 120.499 L 965 83 L 1002.5 83 L 1040 83 L 1040 120.499 L 1040 120.499 L 1040 120.499 L 1040 120.499 L 1040 120.499 L 1040 120.499 L 1040 120.499 Z  M 1115 195.499 L 1115 233 L 1077.5 233 L 1040 233 L 1040 233 L 1040 195.499 L 1040 158 L 1040 158 L 1077.5 158 L 1115 158 L 1115 195.499 L 1115 195.499 L 1115 195.499 L 1115 195.499 L 1115 195.499 L 1115 195.499 Z  M 1190 270.499 L 1190 308 L 1152.5 308 L 1115 308 L 1115 270.499 L 1115 233 L 1152.5 233 L 1190 233 L 1190 270.499 L 1190 270.499 L 1190 270.499 L 1190 270.499 L 1190 270.499 Z  M 815 45.499 L 815 83 L 777.5 83 L 740 83 L 740 45.499 L 740 8 L 777.5 8 L 815 8 L 815 45.499 L 815 45.499 L 815 45.499 L 815 45.499 Z  M 890 120.499 L 890 158 L 852.5 158 L 815 158 L 815 120.499 L 815 83 L 852.5 83 L 890 83 L 890 120.499 L 890 120.499 L 890 120.499 Z  M 965 195.499 L 965 233 L 927.5 233 L 890 233 L 890 195.499 L 890 158 L 890 158 L 927.5 158 L 965 158 L 965 195.499 L 965 195.499 Z  M 1040 270.499 L 1040 308 L 1002.5 308 L 965 308 L 965 270.499 L 965 233 L 1002.5 233 L 1040 233 L 1040 270.499 Z " fill-rule="evenodd" fill="url(#_lgradient_0)"/></g><g><g><g><path d=" M 236.731 75.057 L 236.731 93.257 L 218.53 93.257 L 200.331 93.257 L 200.331 75.057 L 200.331 56.858 L 218.53 56.858 L 236.731 56.858 L 236.731 75.057 Z  M 200.331 75.057 L 200.331 93.257 L 182.131 93.257 L 163.931 93.257 L 163.931 75.057 L 163.931 56.858 L 182.131 56.858 L 200.331 56.858 L 200.331 75.057 Z  M 163.931 75.057 L 163.931 93.257 L 145.732 93.257 L 127.532 93.257 L 127.532 75.057 L 127.532 56.858 L 145.732 56.858 L 163.931 56.858 L 163.931 75.057 Z  M 200.331 111.457 L 200.331 129.657 L 182.131 129.657 L 163.931 129.657 L 163.931 111.457 L 163.931 93.257 L 182.131 93.257 L 200.331 93.257 L 200.331 111.457 Z " fill-rule="evenodd" fill="rgb(58,57,51)"/><path d=" M 200.331 182.602 L 200.331 200.25 L 182.131 200.25 L 163.931 200.25 L 163.931 182.602 L 163.931 164.953 L 182.131 164.953 L 200.331 164.953 L 200.331 182.602 Z " fill="rgb(135,136,132)"/><path d=" M 163.931 147.305 L 163.931 164.953 L 145.732 164.953 L 127.532 164.953 L 127.532 147.305 L 127.532 129.657 L 145.732 129.657 L 163.931 129.657 L 163.931 147.305 Z " fill="rgb(205,204,202)"/><path d=" M 236.731 147.305 L 236.731 164.953 L 218.53 164.953 L 200.331 164.953 L 200.331 147.305 L 200.331 129.657 L 218.53 129.657 L 236.731 129.657 L 236.731 147.305 Z " fill="rgb(250,181,17)"/></g><path d=" M 170.087 241.095 L 170.087 241.095 L 170.087 241.095 Q 170.087 242.52 169.618 243.814 L 169.618 243.814 L 169.618 243.814 Q 169.149 245.108 168.324 246.158 L 168.324 246.158 L 168.324 246.158 Q 169.149 247.208 169.618 248.502 L 169.618 248.502 L 169.618 248.502 Q 170.087 249.796 170.087 251.221 L 170.087 251.221 L 170.087 259.284 L 164.049 259.284 L 164.049 251.221 L 164.049 251.221 Q 164.049 250.358 163.468 249.777 L 163.468 249.777 L 163.468 249.777 Q 162.886 249.196 162.024 249.196 L 162.024 249.196 L 155.949 249.196 L 155.949 259.284 L 149.911 259.284 L 149.911 233.032 L 155.949 233.032 L 162.024 233.032 L 162.024 233.032 Q 163.712 233.032 165.174 233.67 L 165.174 233.67 L 165.174 233.67 Q 166.637 234.307 167.724 235.395 L 167.724 235.395 L 167.724 235.395 Q 168.812 236.482 169.449 237.945 L 169.449 237.945 L 169.449 237.945 Q 170.087 239.408 170.087 241.095 Z  M 155.949 243.12 L 162.024 243.12 L 162.024 243.12 Q 162.886 243.12 163.468 242.539 L 163.468 242.539 L 163.468 242.539 Q 164.049 241.958 164.049 241.095 L 164.049 241.095 L 164.049 241.095 Q 164.049 240.27 163.468 239.689 L 163.468 239.689 L 163.468 239.689 Q 162.886 239.108 162.024 239.108 L 162.024 239.108 L 155.949 239.108 L 155.949 243.12 Z  M 192.094 233.032 L 192.094 251.221 L 192.094 251.221 Q 192.094 252.908 191.457 254.371 L 191.457 254.371 L 191.457 254.371 Q 190.819 255.834 189.732 256.921 L 189.732 256.921 L 189.732 256.921 Q 188.644 258.009 187.181 258.646 L 187.181 258.646 L 187.181 258.646 Q 185.719 259.284 184.031 259.284 L 184.031 259.284 L 179.981 259.284 L 179.981 259.284 Q 178.293 259.284 176.831 258.646 L 176.831 258.646 L 176.831 258.646 Q 175.368 258.009 174.281 256.921 L 174.281 256.921 L 174.281 256.921 Q 173.193 255.834 172.555 254.371 L 172.555 254.371 L 172.555 254.371 Q 171.918 252.908 171.918 251.221 L 171.918 251.221 L 171.918 233.032 L 177.956 233.032 L 177.956 251.221 L 177.956 251.221 Q 177.956 252.046 178.537 252.646 L 178.537 252.646 L 178.537 252.646 Q 179.118 253.246 179.981 253.246 L 179.981 253.246 L 184.031 253.246 L 184.031 253.246 Q 184.894 253.246 185.475 252.646 L 185.475 252.646 L 185.475 252.646 Q 186.057 252.046 186.057 251.221 L 186.057 251.221 L 186.057 233.032 L 192.094 233.032 Z  M 214.102 241.095 L 214.102 241.095 L 214.102 241.095 Q 214.102 242.52 213.633 243.814 L 213.633 243.814 L 213.633 243.814 Q 213.164 245.108 212.339 246.158 L 212.339 246.158 L 212.339 246.158 Q 213.164 247.208 213.633 248.502 L 213.633 248.502 L 213.633 248.502 Q 214.102 249.796 214.102 251.221 L 214.102 251.221 L 214.102 251.221 Q 214.102 252.908 213.464 254.371 L 213.464 254.371 L 213.464 254.371 Q 212.827 255.834 211.739 256.921 L 211.739 256.921 L 211.739 256.921 Q 210.652 258.009 209.189 258.646 L 209.189 258.646 L 209.189 258.646 Q 207.726 259.284 206.039 259.284 L 206.039 259.284 L 199.963 259.284 L 193.925 259.284 L 193.925 233.032 L 199.963 233.032 L 206.039 233.032 L 206.039 233.032 Q 207.726 233.032 209.189 233.67 L 209.189 233.67 L 209.189 233.67 Q 210.652 234.307 211.739 235.395 L 211.739 235.395 L 211.739 235.395 Q 212.827 236.482 213.464 237.945 L 213.464 237.945 L 213.464 237.945 Q 214.102 239.408 214.102 241.095 Z  M 206.039 239.108 L 199.963 239.108 L 199.963 243.12 L 206.039 243.12 L 206.039 243.12 Q 206.901 243.12 207.483 242.539 L 207.483 242.539 L 207.483 242.539 Q 208.064 241.958 208.064 241.095 L 208.064 241.095 L 208.064 241.095 Q 208.064 240.27 207.483 239.689 L 207.483 239.689 L 207.483 239.689 Q 206.901 239.108 206.039 239.108 L 206.039 239.108 Z  M 199.963 253.246 L 206.039 253.246 L 206.039 253.246 Q 206.901 253.246 207.483 252.646 L 207.483 252.646 L 207.483 252.646 Q 208.064 252.046 208.064 251.221 L 208.064 251.221 L 208.064 251.221 Q 208.064 250.358 207.483 249.777 L 207.483 249.777 L 207.483 249.777 Q 206.901 249.196 206.039 249.196 L 206.039 249.196 L 199.963 249.196 L 199.963 253.246 Z  M 215.933 233.032 L 215.933 233.032 L 221.971 233.032 L 221.971 259.284 L 215.933 259.284 L 215.933 233.032 Z  M 235.915 253.246 L 235.915 253.246 L 235.915 253.246 Q 236.778 253.246 237.359 252.646 L 237.359 252.646 L 237.359 252.646 Q 237.94 252.046 237.94 251.221 L 237.94 251.221 L 243.978 251.221 L 243.978 251.221 Q 243.978 252.908 243.341 254.371 L 243.341 254.371 L 243.341 254.371 Q 242.703 255.834 241.615 256.921 L 241.615 256.921 L 241.615 256.921 Q 240.528 258.009 239.065 258.646 L 239.065 258.646 L 239.065 258.646 Q 237.603 259.284 235.915 259.284 L 235.915 259.284 L 231.865 259.284 L 231.865 259.284 Q 230.177 259.284 228.715 258.646 L 228.715 258.646 L 228.715 258.646 Q 227.252 258.009 226.164 256.921 L 226.164 256.921 L 226.164 256.921 Q 225.077 255.834 224.439 254.371 L 224.439 254.371 L 224.439 254.371 Q 223.802 252.908 223.802 251.221 L 223.802 251.221 L 223.802 241.095 L 223.802 241.095 Q 223.802 239.408 224.439 237.945 L 224.439 237.945 L 224.439 237.945 Q 225.077 236.482 226.164 235.395 L 226.164 235.395 L 226.164 235.395 Q 227.252 234.307 228.715 233.67 L 228.715 233.67 L 228.715 233.67 Q 230.177 233.032 231.865 233.032 L 231.865 233.032 L 235.915 233.032 L 235.915 233.032 Q 237.603 233.032 239.065 233.67 L 239.065 233.67 L 239.065 233.67 Q 240.528 234.307 241.615 235.395 L 241.615 235.395 L 241.615 235.395 Q 242.703 236.482 243.341 237.945 L 243.341 237.945 L 243.341 237.945 Q 243.978 239.408 243.978 241.095 L 243.978 241.095 L 237.94 241.095 L 237.94 241.095 Q 237.94 240.27 237.359 239.689 L 237.359 239.689 L 237.359 239.689 Q 236.778 239.108 235.915 239.108 L 235.915 239.108 L 231.865 239.108 L 231.865 239.108 Q 231.002 239.108 230.421 239.689 L 230.421 239.689 L 230.421 239.689 Q 229.839 240.27 229.839 241.095 L 229.839 241.095 L 229.839 251.221 L 229.839 251.221 Q 229.839 252.046 230.421 252.646 L 230.421 252.646 L 230.421 252.646 Q 231.002 253.246 231.865 253.246 L 231.865 253.246 L 235.915 253.246 Z  M 253.872 233.032 L 257.922 233.032 L 257.922 233.032 Q 259.61 233.032 261.073 233.67 L 261.073 233.67 L 261.073 233.67 Q 262.535 234.307 263.623 235.395 L 263.623 235.395 L 263.623 235.395 Q 264.711 236.482 265.348 237.945 L 265.348 237.945 L 265.348 237.945 Q 265.985 239.408 265.985 241.095 L 265.985 241.095 L 265.985 251.221 L 265.985 251.221 Q 265.985 252.908 265.348 254.371 L 265.348 254.371 L 265.348 254.371 Q 264.711 255.834 263.623 256.921 L 263.623 256.921 L 263.623 256.921 Q 262.535 258.009 261.073 258.646 L 261.073 258.646 L 261.073 258.646 Q 259.61 259.284 257.922 259.284 L 257.922 259.284 L 253.872 259.284 L 253.872 259.284 Q 252.184 259.284 250.722 258.646 L 250.722 258.646 L 250.722 258.646 Q 249.259 258.009 248.172 256.921 L 248.172 256.921 L 248.172 256.921 Q 247.084 255.834 246.447 254.371 L 246.447 254.371 L 246.447 254.371 Q 245.809 252.908 245.809 251.221 L 245.809 251.221 L 245.809 241.095 L 245.809 241.095 Q 245.809 239.408 246.447 237.945 L 246.447 237.945 L 246.447 237.945 Q 247.084 236.482 248.172 235.395 L 248.172 235.395 L 248.172 235.395 Q 249.259 234.307 250.722 233.67 L 250.722 233.67 L 250.722 233.67 Q 252.184 233.032 253.872 233.032 L 253.872 233.032 Z  M 259.948 251.221 L 259.948 241.095 L 259.948 241.095 Q 259.948 240.27 259.366 239.689 L 259.366 239.689 L 259.366 239.689 Q 258.785 239.108 257.922 239.108 L 257.922 239.108 L 253.872 239.108 L 253.872 239.108 Q 253.01 239.108 252.428 239.689 L 252.428 239.689 L 252.428 239.689 Q 251.847 240.27 251.847 241.095 L 251.847 241.095 L 251.847 251.221 L 251.847 251.221 Q 251.847 252.046 252.428 252.646 L 252.428 252.646 L 252.428 252.646 Q 253.01 253.246 253.872 253.246 L 253.872 253.246 L 257.922 253.246 L 257.922 253.246 Q 258.785 253.246 259.366 252.646 L 259.366 252.646 L 259.366 252.646 Q 259.948 252.046 259.948 251.221 L 259.948 251.221 Z  M 267.816 259.284 L 267.816 241.095 L 267.816 241.095 Q 267.816 239.408 268.454 237.945 L 268.454 237.945 L 268.454 237.945 Q 269.091 236.482 270.179 235.395 L 270.179 235.395 L 270.179 235.395 Q 271.267 234.307 272.729 233.67 L 272.729 233.67 L 272.729 233.67 Q 274.192 233.032 275.879 233.032 L 275.879 233.032 L 279.93 233.032 L 279.93 233.032 Q 281.617 233.032 283.08 233.67 L 283.08 233.67 L 283.08 233.67 Q 284.542 234.307 285.63 235.395 L 285.63 235.395 L 285.63 235.395 Q 286.718 236.482 287.355 237.945 L 287.355 237.945 L 287.355 237.945 Q 287.993 239.408 287.993 241.095 L 287.993 241.095 L 287.993 259.284 L 281.955 259.284 L 281.955 241.095 L 281.955 241.095 Q 281.955 240.27 281.374 239.67 L 281.374 239.67 L 281.374 239.67 Q 280.792 239.07 279.93 239.07 L 279.93 239.07 L 275.879 239.07 L 275.879 239.07 Q 275.017 239.07 274.435 239.67 L 274.435 239.67 L 274.435 239.67 Q 273.855 240.27 273.855 241.095 L 273.855 241.095 L 273.855 259.284 L 267.816 259.284 Z  M 297.887 239.108 L 297.887 239.108 L 297.887 239.108 Q 297.024 239.108 296.443 239.689 L 296.443 239.689 L 296.443 239.689 Q 295.862 240.27 295.862 241.095 L 295.862 241.095 L 295.862 243.12 L 310 243.12 L 310 249.196 L 295.862 249.196 L 295.862 251.221 L 295.862 251.221 Q 295.862 252.046 296.443 252.646 L 296.443 252.646 L 296.443 252.646 Q 297.024 253.246 297.887 253.246 L 297.887 253.246 L 310 253.246 L 310 259.284 L 297.887 259.284 L 297.887 259.284 Q 296.199 259.284 294.737 258.646 L 294.737 258.646 L 294.737 258.646 Q 293.274 258.009 292.186 256.921 L 292.186 256.921 L 292.186 256.921 Q 291.099 255.834 290.461 254.371 L 290.461 254.371 L 290.461 254.371 Q 289.824 252.908 289.824 251.221 L 289.824 251.221 L 289.824 241.095 L 289.824 241.095 Q 289.824 239.408 290.461 237.945 L 290.461 237.945 L 290.461 237.945 Q 291.099 236.482 292.186 235.395 L 292.186 235.395 L 292.186 235.395 Q 293.274 234.307 294.737 233.67 L 294.737 233.67 L 294.737 233.67 Q 296.199 233.032 297.887 233.032 L 297.887 233.032 L 310 233.032 L 310 239.108 L 297.887 239.108 Z  M 74.188 233.032 L 74.188 233.032 L 74.188 239.108 L 68.113 239.108 L 68.113 259.284 L 62.075 259.284 L 62.075 239.108 L 56 239.108 L 56 233.032 L 74.188 233.032 Z  M 84.082 239.108 L 84.082 239.108 L 84.082 239.108 Q 83.22 239.108 82.639 239.689 L 82.639 239.689 L 82.639 239.689 Q 82.058 240.27 82.058 241.095 L 82.058 241.095 L 82.058 243.12 L 96.196 243.12 L 96.196 249.196 L 82.058 249.196 L 82.058 251.221 L 82.058 251.221 Q 82.058 252.046 82.639 252.646 L 82.639 252.646 L 82.639 252.646 Q 83.22 253.246 84.082 253.246 L 84.082 253.246 L 96.196 253.246 L 96.196 259.284 L 84.082 259.284 L 84.082 259.284 Q 82.395 259.284 80.932 258.646 L 80.932 258.646 L 80.932 258.646 Q 79.47 258.009 78.382 256.921 L 78.382 256.921 L 78.382 256.921 Q 77.295 255.834 76.657 254.371 L 76.657 254.371 L 76.657 254.371 Q 76.019 252.908 76.019 251.221 L 76.019 251.221 L 76.019 241.095 L 76.019 241.095 Q 76.019 239.408 76.657 237.945 L 76.657 237.945 L 76.657 237.945 Q 77.295 236.482 78.382 235.395 L 78.382 235.395 L 78.382 235.395 Q 79.47 234.307 80.932 233.67 L 80.932 233.67 L 80.932 233.67 Q 82.395 233.032 84.082 233.032 L 84.082 233.032 L 96.196 233.032 L 96.196 239.108 L 84.082 239.108 Z  M 110.14 253.246 L 110.14 253.246 L 110.14 253.246 Q 111.003 253.246 111.584 252.646 L 111.584 252.646 L 111.584 252.646 Q 112.165 252.046 112.165 251.221 L 112.165 251.221 L 118.204 251.221 L 118.204 251.221 Q 118.204 252.908 117.566 254.371 L 117.566 254.371 L 117.566 254.371 Q 116.928 255.834 115.84 256.921 L 115.84 256.921 L 115.84 256.921 Q 114.753 258.009 113.291 258.646 L 113.291 258.646 L 113.291 258.646 Q 111.828 259.284 110.14 259.284 L 110.14 259.284 L 106.09 259.284 L 106.09 259.284 Q 104.403 259.284 102.94 258.646 L 102.94 258.646 L 102.94 258.646 Q 101.477 258.009 100.389 256.921 L 100.389 256.921 L 100.389 256.921 Q 99.302 255.834 98.665 254.371 L 98.665 254.371 L 98.665 254.371 Q 98.027 252.908 98.027 251.221 L 98.027 251.221 L 98.027 241.095 L 98.027 241.095 Q 98.027 239.408 98.665 237.945 L 98.665 237.945 L 98.665 237.945 Q 99.302 236.482 100.389 235.395 L 100.389 235.395 L 100.389 235.395 Q 101.477 234.307 102.94 233.67 L 102.94 233.67 L 102.94 233.67 Q 104.403 233.032 106.09 233.032 L 106.09 233.032 L 110.14 233.032 L 110.14 233.032 Q 111.828 233.032 113.291 233.67 L 113.291 233.67 L 113.291 233.67 Q 114.753 234.307 115.84 235.395 L 115.84 235.395 L 115.84 235.395 Q 116.928 236.482 117.566 237.945 L 117.566 237.945 L 117.566 237.945 Q 118.204 239.408 118.204 241.095 L 118.204 241.095 L 112.165 241.095 L 112.165 241.095 Q 112.165 240.27 111.584 239.689 L 111.584 239.689 L 111.584 239.689 Q 111.003 239.108 110.14 239.108 L 110.14 239.108 L 106.09 239.108 L 106.09 239.108 Q 105.228 239.108 104.646 239.689 L 104.646 239.689 L 104.646 239.689 Q 104.065 240.27 104.065 241.095 L 104.065 241.095 L 104.065 251.221 L 104.065 251.221 Q 104.065 252.046 104.646 252.646 L 104.646 252.646 L 104.646 252.646 Q 105.228 253.246 106.09 253.246 L 106.09 253.246 L 110.14 253.246 Z  M 134.173 233.032 L 134.173 233.032 L 140.211 233.032 L 140.211 259.284 L 134.173 259.284 L 134.173 249.196 L 126.072 249.196 L 126.072 259.284 L 120.034 259.284 L 120.034 233.032 L 126.072 233.032 L 126.072 243.12 L 134.173 243.12 L 134.173 233.032 Z " fill="rgb(0,0,0)"/></g><path d=" M 61 332.5 L 1131.333 332.5 L 1131.333 333.5 L 61 333.5 L 61 332.5 Z " fill="rgb(58,57,51)"/><g><g><g clip-path="url(#_clipPath_UyTyurrxXlLdImZYjguJO3O6M3YlwQtt)"><text transform="matrix(1,0,0,1,60,575.377)" style="font-family:'Open Sans';font-weight:400;font-size:20px;font-style:normal;fill:#3a3933;stroke:none;">Lets you develop fast and don't spend time on creating reducers, actions, action creators</text></g><defs><clipPath id="_clipPath_UyTyurrxXlLdImZYjguJO3O6M3YlwQtt"><rect x="0" y="0" width="827" height="27.236" transform="matrix(1,0,0,1,60,554)"/></clipPath></defs><g clip-path="url(#_clipPath_C1ggNDoxlePFV4MweU6l7RN5XjQQ1kQR)"><text transform="matrix(1,0,0,1,60,545.652)" style="font-family:'Open Sans';font-weight:700;font-size:24px;font-style:normal;fill:#000000;stroke:none;">Time saver</text></g><defs><clipPath id="_clipPath_C1ggNDoxlePFV4MweU6l7RN5XjQQ1kQR"><rect x="0" y="0" width="133" height="32.684" transform="matrix(1,0,0,1,60,520)"/></clipPath></defs></g><g><g clip-path="url(#_clipPath_OKBDIR9soSUNnVxAvgvAWcxEn9OfmViw)"><text transform="matrix(1,0,0,1,60,505.377)" style="font-family:'Open Sans';font-weight:400;font-size:20px;font-style:normal;fill:#3a3933;stroke:none;">Lets you focus on develop, and keep your code and file structure simple.</text></g><defs><clipPath id="_clipPath_OKBDIR9soSUNnVxAvgvAWcxEn9OfmViw"><rect x="0" y="0" width="676" height="27.236" transform="matrix(1,0,0,1,60,484)"/></clipPath></defs><g clip-path="url(#_clipPath_isDmPRxpwsLdt6mIlN7z1iXxTGj5EH9e)"><text transform="matrix(1,0,0,1,60,475.652)" style="font-family:'Open Sans';font-weight:700;font-size:24px;font-style:normal;fill:#000000;stroke:none;">Focus on What Matters</text></g><defs><clipPath id="_clipPath_isDmPRxpwsLdt6mIlN7z1iXxTGj5EH9e"><rect x="0" y="0" width="279" height="32.684" transform="matrix(1,0,0,1,60,450)"/></clipPath></defs></g><g><g clip-path="url(#_clipPath_3Bm8jxFut8qyjpWQTLNLzeCC54VqPfxo)"><text transform="matrix(1,0,0,1,60,435.377)" style="font-family:'Open Sans';font-weight:400;font-size:20px;font-style:normal;fill:#3a3933;stroke:none;">Designed to be easily installed and used to develop fast.</text></g><defs><clipPath id="_clipPath_3Bm8jxFut8qyjpWQTLNLzeCC54VqPfxo"><rect x="0" y="0" width="524" height="27.236" transform="matrix(1,0,0,1,60,414)"/></clipPath></defs><g clip-path="url(#_clipPath_YflXFsC2XoK2xk12l1s1JYdrXOBdYP2G)"><text transform="matrix(1,0,0,1,60,405.652)" style="font-family:'Open Sans';font-weight:700;font-size:24px;font-style:normal;fill:#000000;stroke:none;">Easy to Use</text></g><defs><clipPath id="_clipPath_YflXFsC2XoK2xk12l1s1JYdrXOBdYP2G"><rect x="0" y="0" width="138" height="32.684" transform="matrix(1,0,0,1,60,380)"/></clipPath></defs></g></g><g><g clip-path="url(#_clipPath_IOBY6DjPUGtVWjoxXIZEDrRQCfcK0aDH)"><text transform="matrix(1,0,0,1,355.75,252.152)" style="font-family:'Open Sans';font-weight:400;font-size:24px;font-style:normal;fill:#3a3933;stroke:none;">A tool to simplify work with react, redux and redux-saga</text></g><defs><clipPath id="_clipPath_IOBY6DjPUGtVWjoxXIZEDrRQCfcK0aDH"><rect x="0" y="0" width="625" height="32.684" transform="matrix(1,0,0,1,355.75,226.5)"/></clipPath></defs><g clip-path="url(#_clipPath_b5xcjt7usC9kNvynWtDgviedSQn3rBYq)"><text transform="matrix(1,0,0,1,353.618,202.918)" style="font-family:'Open Sans';font-weight:700;font-size:52px;font-style:normal;fill:#000000;stroke:none;">redux-saga-controller</text></g><defs><clipPath id="_clipPath_b5xcjt7usC9kNvynWtDgviedSQn3rBYq"><rect x="0" y="0" width="563" height="70.814" transform="matrix(1,0,0,1,353.618,147.338)"/></clipPath></defs></g></g></g></g></svg>