<svg id="Capa_1" enable-background="new 0 0 497.274 497.274" height="512" viewBox="0 0 497.274 497.274" width="512" xmlns="http://www.w3.org/2000/svg"><g><path d="m193.846 138.058v-27.053c0-2.326.702-4.598 2.015-6.519l38.4-56.197c9.619-14.077 6.005-33.285-8.072-42.904-14.076-9.619-33.285-6.005-42.904 8.072l-42.898 62.78c-5.394 7.894-8.28 17.233-8.28 26.794v86.698 73.128l67.074-45.561z" fill="#ffefe7"/><g><g id="XMLID_148_"><g><path d="m272.71 227.863 17.65-90.05-69.09 57.89.05.32c7.28-1.13 14.94.83 20.9 5.9zm40.41-137.7.76-.32c3.48-2.58 7.3-4.74 11.37-6.41s8.39-2.84 12.89-3.46c15.73-2.16 29.41 10.81 28.1 26.63l-7.22 87.27c-.31 3.83.4 7.66 2.07 11.12l13.36 27.62c17.75 36.71 18.35 79.39 1.65 116.59l-40.96 91.21v45.882c0 6.075-4.933 10.995-11.008 10.979l-163.452-.432c-6.052-.016-10.95-4.927-10.95-10.979v-37.6l-32.57-40.94c-13.84-17.39-22.16-38.51-23.9-60.66l-6.85-87.03c-1.47-18.63 6.18-36.83 20.52-48.83l157.96-132.2c5.78-4.85 12.82-7.21 19.82-7.21 8.81 0 17.57 3.75 23.67 11.04 2 2.39 3.58 5 4.74 7.73z" fill="#ffefe7"/></g><g><path d="m331.126 81.421c-2.005.557-3.973 1.231-5.876 2.012-4.07 1.67-7.89 3.83-11.37 6.41l-.76.32c-1.16-2.73-2.74-5.34-4.74-7.73-1.538-1.838-3.245-3.449-5.079-4.833l-13.817 60.948.877-.735-6.119 31.22 33.16-27.785c17.813-14.936 22.795-39.593 13.724-59.827z" fill="#ffe0d1"/></g><path d="m160.03 192.259 35.845-24.061-2.029-30.14v-19.557l-23.068 19.306c-4.917 4.115-12.402.619-12.402-5.793v-22.599c0-9.562 2.886-18.9 8.28-26.795l42.898-62.78c4.629-6.774 11.48-11.117 18.91-12.736-.727-.601-1.482-1.177-2.276-1.72-14.076-9.619-33.285-6.005-42.904 8.072l-42.898 62.78c-5.394 7.895-8.28 17.233-8.28 26.795v86.698 2.529h27.924z" fill="#ffd1c2"/><path d="m308.38 82.433c10.95 13.07 9.23 32.54-3.83 43.49l-83.28 69.78.05.32c-4.73.72-9.3 2.76-13.13 6.1l-40.19 34.98-78.6-.85c3.38-9.78 9.37-18.62 17.53-25.45l157.96-132.2c5.78-4.85 12.82-7.21 19.82-7.21 8.81 0 17.57 3.75 23.67 11.04z" fill="#ffefe7"/><g><path d="m203.308 496.842c-6.052-.016-10.95-4.927-10.95-10.979v-20.637c0-10.983-3.723-21.643-10.561-30.238l-22.009-27.665c-13.84-17.39-22.16-38.51-23.9-60.66l-6.85-87.03c-1.47-18.63 6.18-36.83 20.52-48.83l156.431-130.92c-5.886-5.612-13.563-8.489-21.28-8.489-7 0-14.04 2.36-19.82 7.21l-157.96 132.2c-14.34 12-21.99 30.2-20.52 48.83l6.85 87.03c1.74 22.15 10.06 43.27 23.9 60.66l32.57 40.94v37.6c0 6.052 4.898 10.963 10.95 10.979h42.629z" fill="#ffe0d1"/></g><g><g id="XMLID_149_"><g><path d="m317.946 306.861c7.051-8.291 10.934-18.842 10.934-29.708 0-13.488-5.89-26.228-16.152-34.945l-36.709-31.226-3.309 16.882-30.49-25.94c-4.192-3.566-9.226-5.587-14.376-6.083v128.342c0 21.195 9.303 41.323 25.448 55.056 8.284 7.046 18.832 10.927 29.699 10.927 13.489 0 26.231-5.89 34.956-16.155 7.05-8.292 10.933-18.839 10.933-29.697 0-12.806-5.32-24.936-14.651-33.606 1.302-1.212 2.556-2.481 3.717-3.847z" fill="#ffe0d1"/></g><path d="m313.88 277.153c0 7.07-2.42 14.18-7.36 19.99-4.95 5.82-11.59 9.35-18.59 10.48l-.16.19-45.55-38.74c-9.83-8.36-24.3-8.28-34.03.2l-40.19 34.98v-67.15l40.19-34.98c3.83-3.34 8.4-5.38 13.13-6.1 7.28-1.13 14.94.83 20.9 5.9l30.49 25.94 30.3 25.77c7.18 6.1 10.87 14.78 10.87 23.52z" fill="#ffefe7"/><path d="m306.282 297.398c-1.751-3.157-4.079-6.062-6.993-8.537l-30.3-25.77-30.49-25.94c-5.96-5.07-13.62-7.03-20.9-5.9-4.73.72-9.3 2.76-13.13 6.1l-29.226 25.437c-4.602 4.005-7.243 9.807-7.243 15.907v25.558l40.19-34.98c9.73-8.48 24.2-8.56 34.03-.2l45.55 38.74.16-.19c6.892-1.112 13.428-4.563 18.352-10.225z" fill="#ffe0d1"/></g></g></g></g><g><g id="XMLID_152_"><g><path d="m313.88 344.313c0 7.07-2.42 14.17-7.36 19.98-11.04 12.99-30.53 14.56-43.51 3.52l-37.63-32.01-11.17 11.17-46.21-42.72 40.19-34.98c9.73-8.48 24.2-8.56 34.03-.2l60.79 51.71c7.18 6.11 10.87 14.79 10.87 23.53z" fill="#ffefe7"/></g></g></g><g><path d="m349.538 47.144c-1.235 0-2.486-.305-3.643-.948-3.618-2.016-4.918-6.583-2.903-10.202l15.411-27.672c2.016-3.618 6.583-4.918 10.202-2.903 3.618 2.016 4.918 6.583 2.903 10.202l-15.411 27.672c-1.371 2.462-3.926 3.851-6.559 3.851z" fill="#fbe88c"/></g><g><path d="m376.621 71.843c-2.511 0-4.964-1.261-6.383-3.552-2.182-3.521-1.095-8.145 2.427-10.325l26.928-16.677c3.523-2.181 8.145-1.094 10.325 2.427 2.182 3.521 1.095 8.145-2.427 10.325l-26.928 16.677c-1.23.762-2.594 1.125-3.942 1.125z" fill="#fbe88c"/></g></g></svg>